<?xml version="1.0" encoding="UTF-8" standalone="no"?>
<svg
   xmlns:dc="http://purl.org/dc/elements/1.1/"
   xmlns:cc="http://creativecommons.org/ns#"
   xmlns:rdf="http://www.w3.org/1999/02/22-rdf-syntax-ns#"
   xmlns:svg="http://www.w3.org/2000/svg"
   xmlns="http://www.w3.org/2000/svg"
   xmlns:sodipodi="http://sodipodi.sourceforge.net/DTD/sodipodi-0.dtd"
   xmlns:inkscape="http://www.inkscape.org/namespaces/inkscape"
   aria-hidden="true"
   focusable="false"
   data-prefix="fas"
   data-icon="cog"
   class="svg-inline--fa fa-cog fa-w-16"
   role="img"
   viewBox="0 0 926.37304 631.83985"
   version="1.1"
   id="svg4"
   sodipodi:docname="cloud-settings.svg"
   width="926.37305"
   height="631.83984"
   inkscape:export-filename="D:\_Repos\public\tivconsultancy\tivPIV\src\main\resources\com\tivconsultancy\tivPIV\menuicons\settingsCloud.png"
   inkscape:export-xdpi="96"
   inkscape:export-ydpi="96"
   inkscape:version="0.92.4 (5da689c313, 2019-01-14)">
  <metadata
     id="metadata10">
    <rdf:RDF>
      <cc:Work
         rdf:about="">
        <dc:format>image/svg+xml</dc:format>
        <dc:type
           rdf:resource="http://purl.org/dc/dcmitype/StillImage" />
        <dc:title></dc:title>
      </cc:Work>
    </rdf:RDF>
  </metadata>
  <defs
     id="defs8" />
  <sodipodi:namedview
     pagecolor="#ffffff"
     bordercolor="#666666"
     borderopacity="1"
     objecttolerance="10"
     gridtolerance="10"
     guidetolerance="10"
     inkscape:pageopacity="0"
     inkscape:pageshadow="2"
     inkscape:window-width="1920"
     inkscape:window-height="1017"
     id="namedview6"
     showgrid="false"
     fit-margin-top="0"
     fit-margin-left="0"
     fit-margin-right="0"
     fit-margin-bottom="0"
     inkscape:zoom="0.23046875"
     inkscape:cx="-419.9591"
     inkscape:cy="136.84951"
     inkscape:window-x="-8"
     inkscape:window-y="-8"
     inkscape:window-maximized="1"
     inkscape:current-layer="svg4" />
  <path
     style="fill:#000005;fill-opacity:1;stroke:none;stroke-width:142.87870789;stroke-linecap:round;stroke-linejoin:round;stroke-miterlimit:4;stroke-dasharray:none;stroke-opacity:1"
     d="M 370.54883,0 C 242.59357,0 138.95508,100.98067 138.95508,225.65625 c 0,3.80797 0.14627,7.61781 0.29101,11.42578 C 58.188468,264.86606 0,340.1776 0,428.74805 0,540.87145 93.360706,631.83984 208.43359,631.83984 h 33.27149 c -3.32084,-7.74463 -6.27802,-15.68037 -8.81055,-23.80273 -1.6,-5.4 0.6,-11.2 5.5,-14 l 42.59961,-24.59961 c -4.3,-23.2 -4.3,-47.00117 0,-70.20117 l -42.59961,-24.59961 c -4.9,-2.8 -7.2,-8.6 -5.5,-14 11.1,-35.7 30.00117,-67.89961 54.70117,-94.59961 3.8,-4.2 9.89883,-5.10078 14.79883,-2.30078 l 42.5,24.60156 c 18,-15.3 38.60078,-27.20156 60.80078,-35.10156 v -49.19922 c 0,-5.6 3.90039,-10.49922 9.40039,-11.69922 34.9,-7.8 72.49922,-8.2 109.19922,0 5.5,1.2 9.40039,6.09922 9.40039,11.69922 v 49.09961 c 22.3,7.8 42.89883,19.69961 60.79883,35.09961 l 42.60156,-24.59961 c 4.8,-2.8 10.99883,-1.79922 14.79883,2.30078 24.7,26.8 43.60117,58.99961 54.70117,94.59961 1.6,5.4 -0.6,11.2 -5.5,14 l -42.60156,24.59961 c 4.3,23.2 4.3,47.00117 0,70.20117 l 42.60156,24.59961 c 4.9,2.8 7.09961,8.59961 5.59961,14.09961 -2.52685,8.12692 -5.47737,16.06217 -8.78906,23.80273 h 43.19141 c 102.33526,0 185.27539,-80.81313 185.27539,-180.52539 0,-87.30112 -63.68918,-160.21715 -148.22071,-176.85937 5.93458,-15.09082 9.26368,-31.59247 9.26368,-48.79883 0,-74.74894 -62.23982,-135.392578 -138.95508,-135.392578 -28.51491,0 -55.14903,8.462006 -77.15039,22.847658 C 531.21598,45.414174 456.38306,0 370.54883,0 Z m 99.14648,454.23633 c -44.1,0 -80,35.9 -80,80 0,44.1 35.9,80 80,80 44.1,0 80,-35.9 80,-80 0,-44.1 -35.9,-80 -80,-80 z"
     id="path2-1"
     inkscape:connector-curvature="0" />
</svg>
