<?xml version="1.0" encoding="UTF-8" standalone="no"?>
<svg
   xmlns:dc="http://purl.org/dc/elements/1.1/"
   xmlns:cc="http://creativecommons.org/ns#"
   xmlns:rdf="http://www.w3.org/1999/02/22-rdf-syntax-ns#"
   xmlns:svg="http://www.w3.org/2000/svg"
   xmlns="http://www.w3.org/2000/svg"
   xmlns:sodipodi="http://sodipodi.sourceforge.net/DTD/sodipodi-0.dtd"
   xmlns:inkscape="http://www.inkscape.org/namespaces/inkscape"
   aria-hidden="true"
   focusable="false"
   data-prefix="fas"
   data-icon="cloud"
   class="svg-inline--fa fa-cloud fa-w-20"
   role="img"
   viewBox="0 0 790.72961 622.87079"
   version="1.1"
   id="svg4"
   sodipodi:docname="cloud-emerging-cog.svg"
   width="790.72961"
   height="622.87079"
   inkscape:version="0.92.4 (5da689c313, 2019-01-14)">
  <metadata
     id="metadata10">
    <rdf:RDF>
      <cc:Work
         rdf:about="">
        <dc:format>image/svg+xml</dc:format>
        <dc:type
           rdf:resource="http://purl.org/dc/dcmitype/StillImage" />
        <dc:title></dc:title>
      </cc:Work>
    </rdf:RDF>
  </metadata>
  <defs
     id="defs8" />
  <sodipodi:namedview
     pagecolor="#ffffff"
     bordercolor="#666666"
     borderopacity="1"
     objecttolerance="10"
     gridtolerance="10"
     guidetolerance="10"
     inkscape:pageopacity="0"
     inkscape:pageshadow="2"
     inkscape:window-width="1920"
     inkscape:window-height="1017"
     id="namedview6"
     showgrid="false"
     inkscape:zoom="0.44375"
     inkscape:cx="320"
     inkscape:cy="224"
     inkscape:window-x="-8"
     inkscape:window-y="-8"
     inkscape:window-maximized="1"
     inkscape:current-layer="svg4" />
  <path
     d="m 537.6,369.47081 c 4.1,-10.7 6.4,-22.4 6.4,-34.6 0,-53 -43,-96 -96,-96 -19.7,0 -38.1,6 -53.3,16.2 -27.7,-48 -79.4,-80.2 -138.7,-80.2 -88.4,0 -160,71.6 -160,160 0,2.7 0.1,5.4 0.2,8.1 -56,19.7 -96.2,73.1 -96.2,135.9 0,79.5 64.5,144 144,144 h 368 c 70.7,0 128,-57.3 128,-128 0,-61.9 -44,-113.6 -102.4,-125.4 z"
     id="path2"
     style="fill:#000000;fill-opacity:1"
     inkscape:connector-curvature="0" />
  <path
     inkscape:connector-curvature="0"
     style="fill:none;stroke:#000000;stroke-width:25;stroke-miterlimit:4;stroke-dasharray:none;stroke-opacity:1"
     d="m 772.19071,320.10461 -42.6,-24.6 c 4.3,-23.2 4.3,-47 0,-70.2 l 42.6,-24.6 c 4.9,-2.8 7.1,-8.6 5.5,-14 -11.1,-35.6 -30,-67.8 -54.7,-94.599998 -3.8,-4.1 -10,-5.1 -14.8,-2.3 l -42.59997,24.599998 c -17.9,-15.399998 -38.5,-27.299998 -60.8,-35.099998 V 30.204607 c 0,-5.6 -3.9,-10.5 -9.4,-11.7 -36.7,-8.2 -74.3,-7.8 -109.2,0 -5.5,1.2 -9.4,6.1 -9.4,11.7 v 49.200005 c -22.2,7.9 -42.8,19.8 -60.8,35.099998 l -42.5,-24.599998 c -4.9,-2.8 -11,-1.9 -14.8,2.3 -24.7,26.699998 -43.6,58.899998 -54.7,94.599998 -1.7,5.4 0.6,11.2 5.5,14 l 42.6,24.6 c -4.3,23.2 -4.3,47 0,70.2 l -42.6,24.6 c -4.9,2.8 -7.1,8.6 -5.5,14 11.1,35.6 30,67.8 54.7,94.6 3.8,4.1 10,5.1 14.8,2.3 l 42.6,-24.6 c 17.9,15.4 38.5,27.3 60.8,35.1 v 49.2 c 0,5.6 3.9,10.5 9.4,11.7 36.7,8.2 74.3,7.8 109.2,0 5.5,-1.2 9.4,-6.1 9.4,-11.7 v -49.2 c 22.2,-7.9 42.8,-19.8 60.8,-35.1 l 42.59997,24.6 c 4.9,2.8 11,1.9 14.8,-2.3 24.7,-26.7 43.6,-58.9 54.7,-94.6 1.5,-5.5 -0.7,-11.3 -5.6,-14.1 z m -231.39997,20.3 c -44.1,0 -80,-35.9 -80,-80 0,-44.1 35.9,-80 80,-80 44.1,0 80,35.9 80,80 0,44.1 -35.9,80 -80,80 z"
     id="path2-1" />
</svg>
