<?xml version="1.0" encoding="UTF-8" standalone="no"?>
<svg
   xmlns:dc="http://purl.org/dc/elements/1.1/"
   xmlns:cc="http://creativecommons.org/ns#"
   xmlns:rdf="http://www.w3.org/1999/02/22-rdf-syntax-ns#"
   xmlns:svg="http://www.w3.org/2000/svg"
   xmlns="http://www.w3.org/2000/svg"
   xmlns:sodipodi="http://sodipodi.sourceforge.net/DTD/sodipodi-0.dtd"
   xmlns:inkscape="http://www.inkscape.org/namespaces/inkscape"
   aria-hidden="true"
   focusable="false"
   data-prefix="fab"
   data-icon="mixcloud"
   class="svg-inline--fa fa-mixcloud fa-w-20"
   role="img"
   viewBox="0 0 640 512"
   version="1.1"
   id="svg4"
   sodipodi:docname="mixcloud-brands.svg"
   inkscape:version="0.92.4 (5da689c313, 2019-01-14)">
  <metadata
     id="metadata10">
    <rdf:RDF>
      <cc:Work
         rdf:about="">
        <dc:format>image/svg+xml</dc:format>
        <dc:type
           rdf:resource="http://purl.org/dc/dcmitype/StillImage" />
        <dc:title></dc:title>
      </cc:Work>
    </rdf:RDF>
  </metadata>
  <defs
     id="defs8" />
  <sodipodi:namedview
     pagecolor="#ffffff"
     bordercolor="#666666"
     borderopacity="1"
     objecttolerance="10"
     gridtolerance="10"
     guidetolerance="10"
     inkscape:pageopacity="0"
     inkscape:pageshadow="2"
     inkscape:window-width="1920"
     inkscape:window-height="1017"
     id="namedview6"
     showgrid="false"
     inkscape:zoom="0.44375"
     inkscape:cx="320"
     inkscape:cy="256"
     inkscape:window-x="-8"
     inkscape:window-y="-8"
     inkscape:window-maximized="1"
     inkscape:current-layer="svg4" />
  <path
     fill="currentColor"
     d="M424.43 219.729C416.124 134.727 344.135 68 256.919 68c-72.266 0-136.224 46.516-159.205 114.074-54.545 8.029-96.63 54.822-96.63 111.582 0 62.298 50.668 112.966 113.243 112.966h289.614c52.329 0 94.969-42.362 94.969-94.693 0-45.131-32.118-83.063-74.48-92.2zm-20.489 144.53H114.327c-39.04 0-70.881-31.564-70.881-70.604s31.841-70.604 70.881-70.604c18.827 0 36.548 7.475 49.838 20.766 19.963 19.963 50.133-10.227 30.18-30.18-14.675-14.398-32.672-24.365-52.053-29.349 19.935-44.3 64.79-73.926 114.628-73.926 69.496 0 125.979 56.483 125.979 125.702 0 13.568-2.215 26.857-6.369 39.594-8.943 27.517 32.133 38.939 40.147 13.29 2.769-8.306 4.984-16.889 6.369-25.472 19.381 7.476 33.502 26.303 33.502 48.453 0 28.795-23.535 52.33-52.607 52.33zm235.069-52.33c0 44.024-12.737 86.386-37.102 122.657-4.153 6.092-10.798 9.414-17.72 9.414-16.317 0-27.127-18.826-17.443-32.949 19.381-29.349 29.903-63.682 29.903-99.122s-10.521-69.773-29.903-98.845c-15.655-22.831 19.361-47.24 35.163-23.534 24.366 35.993 37.102 78.356 37.102 122.379zm-70.88 0c0 31.565-9.137 62.021-26.857 88.325-4.153 6.091-10.798 9.136-17.72 9.136-17.201 0-27.022-18.979-17.443-32.948 13.013-19.104 19.658-41.255 19.658-64.513 0-22.981-6.645-45.408-19.658-64.512-15.761-22.986 19.008-47.095 35.163-23.535 17.719 26.026 26.857 56.483 26.857 88.047z"
     id="path2" />
</svg>
